<?xml version="1.0" encoding="UTF-8"?>
<svg width="61px" height="60px" viewBox="0 0 61 60" version="1.1" xmlns="http://www.w3.org/2000/svg" xmlns:xlink="http://www.w3.org/1999/xlink">
    <title>1E0695AF-8061-47A6-AB36-456C5067F1E3@0.5x</title>
    <defs>
        <rect id="path-1" x="0" y="0" width="60" height="60" rx="13.915663"></rect>
    </defs>
    <g id="Style-Guide" stroke="none" stroke-width="1" fill="none" fill-rule="evenodd">
        <g id="Logos-Styleguide" transform="translate(-1016.000000, -532.000000)">
            <g id="FOX-Bet" transform="translate(160.000000, 439.000000)">
                <g id="FOX-Bet-App-icon" transform="translate(856.500000, 93.000000)">
                    <mask id="mask-2" fill="white">
                        <use xlink:href="#path-1"></use>
                    </mask>
                    <use id="Mask" fill="#142F54" xlink:href="#path-1"></use>
                    <rect id="Rectangle" fill="#FCDA00" mask="url(#mask-2)" x="0" y="30" width="60.3636351" height="30"></rect>
                    <g id="Group-10" mask="url(#mask-2)">
                        <g transform="translate(9.620000, 7.583636)">
                            <path d="M0,18 L0,0 L10.8328323,0 L11.1671476,4.91872292 L5.10328686,4.91872292 L5.10328686,7.27170842 L10.0442889,7.27170842 L10.0442889,12.1811076 L5.06176227,12.1811076 L5.07574504,18 L0,18 Z M42,17.9720286 L36.5861262,8.63552458 L41.5080608,0.0279713694 L35.954783,0.0279713694 L33.8302496,3.90242984 L31.7519017,0.0279713694 L26.0083735,0.0279713694 L31.0277638,8.69612921 L25.7113456,17.9720286 L31.2925889,17.9813524 L33.7649967,13.4338859 L36.2657937,17.9720286 L42,17.9720286 Z M19.7551099,0.269118478 C24.5410302,0.315313618 28.3833256,4.23384818 28.3371401,9.02076662 C28.3371401,13.7619137 24.494421,17.6054342 19.7542624,17.6054342 C15.0141038,17.6054342 11.1713848,13.7619137 11.1713848,9.02076662 C11.1251992,4.23723865 14.96241,0.319975513 19.7449406,0.269118478 L19.7551099,0.269118478 Z M19.7682452,14.0789328 C20.583483,14.0818892 21.252961,13.4368525 21.2805028,12.6218685 L21.2805028,5.42432662 C21.2644014,4.58688077 20.6000081,3.90666792 19.7635843,3.87022038 C18.9402958,3.91217743 18.2983596,4.60001884 18.3114949,5.42432662 L18.3114949,12.5938972 C18.303868,13.4063383 18.9563972,14.0717178 19.7682452,14.0789328 L19.7682452,14.0789328 Z" id="Fill-6" fill="#FEFEFE"></path>
                            <path d="M4.57799253,33.2307324 L4.57799253,29.525729 L6.5654829,29.525729 C7.95867671,29.525729 8.65797119,30.1453487 8.65797119,31.3765354 C8.65797119,32.612808 7.95992174,33.2307324 6.5654829,33.2307324 L4.57799253,33.2307324 Z M4.57799253,36.4449341 C4.57799253,36.4449341 6.26335448,36.4470754 6.82528013,36.4449341 C7.4415723,36.4428372 7.99685777,36.5924444 8.44382522,36.9870175 C8.81111045,37.3820145 8.97670007,37.8787273 8.97587315,38.4576606 C8.97421,39.8159923 8.26163515,40.4953701 6.82528013,40.4953701 L4.57799253,40.4953701 L4.57799253,36.4449341 Z M0,43.9994844 L7.40629632,43.9994844 C8.25333491,44.0083846 9.09829845,43.9020067 9.91711626,43.6837412 C10.6155807,43.4981096 11.270469,43.17389 11.846505,42.7310018 C12.3872651,42.3054901 12.8188771,41.7507144 13.101915,41.1154135 C13.4023834,40.3872969 13.5202466,39.601965 13.5206622,38.812395 C13.5210767,37.8672843 13.2878402,36.937431 12.7707358,36.1537944 C12.3561392,35.5045076 11.7560325,35.0022851 11.0517579,34.7140899 L11.0517579,34.6581462 C11.6962708,34.314431 12.2378609,33.797375 12.6163515,33.1624979 C13.0255529,32.4454005 13.2002727,31.6253157 13.2019328,30.7950593 C13.2052529,29.4854664 12.7387799,28.2216458 11.8004387,27.329936 C10.8716429,26.4467025 9.42076244,26.004662 7.4486275,26.004662 L0,26.004662 L0,43.9994844 Z M37.2804885,43.9999083 L37.2804885,30.1326342 L42,30.1326342 L42,26.004662 L28.2481769,26.004662 L27.9755143,30.1326342 L32.702496,30.1326342 L32.702496,43.9999083 L37.2804885,43.9999083 Z M14.6976344,26 L26.7881662,26 L26.7881662,30.1279722 L19.4329163,30.1279722 L19.4329163,33.0027191 L25.5061955,33.0027191 L25.5061955,36.854363 L19.4329163,36.854363 L19.4329163,39.8765981 L26.7881662,39.8765981 L26.7881662,43.9973654 L14.6976344,43.9973654 L14.6976344,26 Z" id="Fill-8" fill="#142F54"></path>
                        </g>
                    </g>
                </g>
            </g>
        </g>
    </g>
</svg>