<?xml version="1.0" encoding="UTF-8"?>
<svg width="60px" height="60px" viewBox="0 0 60 60" version="1.1" xmlns="http://www.w3.org/2000/svg" xmlns:xlink="http://www.w3.org/1999/xlink">
    <title>894FB0B8-D9E7-4B14-B50C-465F588E25C3@0.5x</title>
    <defs>
        <rect id="path-1" x="0" y="0" width="60" height="60" rx="13.915663"></rect>
    </defs>
    <g id="Style-Guide" stroke="none" stroke-width="1" fill="none" fill-rule="evenodd">
        <g id="Logos-Styleguide" transform="translate(-1130.000000, -532.000000)">
            <g id="FOX-Bet" transform="translate(160.000000, 439.000000)">
                <g id="FOX-Bet-App-icon" transform="translate(970.000000, 93.000000)">
                    <mask id="mask-2" fill="white">
                        <use xlink:href="#path-1"></use>
                    </mask>
                    <use id="Mask" fill="#142F54" xlink:href="#path-1"></use>
                    <rect id="Rectangle" fill="#FCDA00" mask="url(#mask-2)" x="3.41060513e-13" y="24.145454" width="60.3636351" height="21.1272723"></rect>
                    <rect id="Rectangle-Copy" fill="#FFFFFF" mask="url(#mask-2)" x="3.41060513e-13" y="45.2727263" width="60.3636351" height="15.0909088"></rect>
                    <g id="Group" mask="url(#mask-2)" fill-rule="nonzero">
                        <g transform="translate(12.000000, 48.000000)">
                            <polygon id="Path" stroke="none" fill="#142F54" points="0 6.10758621 0.226108374 4.91034483 1.57093596 4.91034483 1.43940887 5.6 1.66551724 5.89517241 2.59211823 5.89517241 2.92906404 5.6 3.17438424 4.30206897 3.00591133 4.06896552 1.14975369 4.06896552 0.55862069 3.30758621 1.01231527 0.903448276 2.04384236 0 4.46009852 0 5.14285714 0.892413793 4.91674877 2.08965517 3.57192118 2.08965517 3.70344828 1.4 3.4773399 1.1062069 2.59802956 1.1062069 2.26256158 1.4 2.02610837 2.64827586 2.19753695 2.87172414 4.05369458 2.87172414 4.63300493 3.64137931 4.16896552 6.09793103 3.13743842 7 0.682758621 7"></polygon>
                            <polygon id="Path" stroke="none" fill="#142F54" points="5.14285714 6.07724138 6.25812368 0 7.56285635 0 6.55093497 5.51862069 6.79925043 5.8537931 7.59730473 5.8537931 7.9676249 5.51862069 8.98098162 0 10.2857143 0 9.17044775 6.07724138 8.13843148 7 5.82751884 7"></polygon>
                            <path d="M13.395647,3.43794326 L13.731856,3.12352246 L14.0523941,1.36938534 L13.8301543,1.05496454 L12.6648199,1.05496454 L12.2303126,3.43794326 L13.395647,3.43794326 Z M11.560744,0 L14.7575782,0 L15.4285714,0.922576832 L14.9456272,3.57033097 L13.9398496,4.49428684 L12.0379897,4.49428684 L11.5821132,7 L10.2857143,7 L11.560744,0 Z" id="Shape" stroke="none" fill="#142F54"></path>
                            <polygon id="Path" stroke="none" fill="#142F54" points="16.8310264 0 20.5714286 0 20.3379472 1.16689655 18.0219378 1.16689655 17.6819013 2.86068966 19.7832332 2.86068966 19.5497519 4.02758621 17.44842 4.02758621 17.0864455 5.83310345 19.4243928 5.83310345 19.1909115 7 15.4285714 7"></polygon>
                            <path d="M23.7516207,3.14482759 L24.1045068,2.82068966 L24.3674139,1.35862069 L24.1382488,1.04689655 L22.9249395,1.04689655 L22.5467469,3.14758621 L23.7516207,3.14482759 Z M21.8339452,0 L25.0675623,0 L25.7142857,0.902068966 L25.2925096,3.24689655 L24.4672342,4.00689655 L24.718894,7 L23.4141998,7 L23.2201828,4.19034483 L22.3555417,4.19034483 L21.8508162,7 L20.5714286,7 L21.8339452,0 Z" id="Shape" stroke="none" fill="#142F54"></path>
                            <path d="M32.6437128,5.62047044 L32.9751523,5.366815 L33.2067903,4.17975207 L33.0121158,3.96948506 L31.0592101,3.96948506 L30.7671983,4.20200254 L30.5392566,5.36904005 L30.7696625,5.62269549 L32.6437128,5.62047044 Z M35.0130741,1.43070566 L31.6530906,1.43070566 L31.2452598,1.73442467 L30.9778903,3.10394151 L31.6407694,2.58661793 L34.5621192,2.58661793 L35.4603327,3.57120153 L34.9884318,5.98537826 L33.66637,7 L29.2110343,7 L28.2857143,5.98537826 L29.2566226,1.01462174 L30.5786844,0 L36,0 L35.8398248,0.822155118 L35.0130741,1.43070566 Z" id="Shape" stroke="#FFFFFF" stroke-width="0.5" fill="#142F55"></path>
                        </g>
                    </g>
                    <g id="Group-10" mask="url(#mask-2)">
                        <g transform="translate(11.620000, 5.583636)">
                            <path d="M0,15.0909088 L0,0 L9.34155905,0 L9.62985171,4.12377772 L4.40075636,4.12377772 L4.40075636,6.09648268 L8.66156838,6.09648268 L8.66156838,10.2124435 L4.36494815,10.2124435 L4.37700602,15.0909088 L0,15.0909088 Z M36.218181,15.067458 L31.5495938,7.23988409 L35.7939633,0.0234507435 L31.0051628,0.0234507435 L29.1730977,3.27173403 L27.3808601,0.0234507435 L22.4279995,0.0234507435 L26.7564087,7.29069403 L22.1718612,15.067458 L26.9847774,15.0752749 L29.1168277,11.2627525 L31.2733591,15.067458 L36.218181,15.067458 Z M17.0355749,0.225624578 C21.1626542,0.264353836 24.4760101,3.54958981 24.4361826,7.56286478 C24.4361826,11.5377658 21.1224613,14.7601112 17.0348441,14.7601112 C12.9472269,14.7601112 9.63350561,11.5377658 9.63350561,7.56286478 C9.59367811,3.55243233 12.9026493,0.268262293 17.0268055,0.225624578 L17.0355749,0.225624578 Z M17.046902,11.8035494 C17.7499122,11.8060281 18.3272283,11.2652397 18.3509787,10.5819704 L18.3509787,4.54766767 C18.3370938,3.84556662 17.7641624,3.27528718 17.0428827,3.24473015 C16.33293,3.27990626 15.7793643,3.85658136 15.7906914,4.54766767 L15.7906914,10.5585196 C15.7841144,11.2396571 16.3468149,11.7975006 17.046902,11.8035494 L17.046902,11.8035494 Z" id="Fill-6" fill="#FEFEFE"></path>
                            <path d="M3.94777529,27.1894013 L3.94777529,24.0831864 L5.66166305,24.0831864 C6.86306652,24.0831864 7.46609447,24.6026655 7.46609447,25.6348726 C7.46609447,26.6713435 6.86414016,27.1894013 5.66166305,27.1894013 L3.94777529,27.1894013 Z M3.94777529,29.8841361 C3.94777529,29.8841361 5.40112634,29.8859312 5.88569599,29.8841361 C6.41714792,29.882378 6.89599149,30.0078063 7.28142834,30.33861 C7.59815223,30.669769 7.74094638,31.0862051 7.7402333,31.5715734 C7.7387991,32.7103767 7.12431898,33.279956 5.88569599,33.279956 L3.94777529,33.279956 L3.94777529,29.8841361 Z M0,36.2177488 L6.38672812,36.2177488 C7.11716138,36.2252105 7.84580525,36.136025 8.55190267,35.9530348 C9.15421486,35.7974042 9.71894965,35.5255838 10.2156872,35.1542735 C10.682005,34.7975314 11.0542003,34.3324164 11.2982745,33.7997904 C11.5573797,33.1893492 11.6590176,32.5309397 11.659376,31.8689769 C11.6597334,31.0766114 11.4586048,30.2970375 11.0126862,29.6400492 C10.655164,29.0956977 10.1376694,28.6746425 9.53034684,28.4330243 L9.53034684,28.3861219 C10.0861346,28.0979567 10.5531681,27.6644653 10.8795548,27.1321946 C11.2324246,26.5309918 11.3830921,25.8434459 11.3845236,25.1473724 C11.3873866,24.0494309 10.9851294,22.9898642 10.1759625,22.2422691 C9.37502688,21.5017804 8.12387808,21.1311808 6.42323188,21.1311808 L0,21.1311808 L0,36.2177488 Z M32.1483686,36.2181041 L32.1483686,24.5920059 L36.218181,24.5920059 L36.218181,21.1311808 L24.3594663,21.1311808 L24.1243391,24.5920059 L28.2005933,24.5920059 L28.2005933,36.2181041 L32.1483686,36.2181041 Z M12.6743234,21.1272723 L23.1004442,21.1272723 L23.1004442,24.5880974 L16.7577353,24.5880974 L16.7577353,26.9982387 L21.9949526,26.9982387 L21.9949526,30.2273946 L16.7577353,30.2273946 L16.7577353,32.7611876 L23.1004442,32.7611876 L23.1004442,36.2159722 L12.6743234,36.2159722 L12.6743234,21.1272723 Z" id="Fill-8" fill="#142F54"></path>
                        </g>
                    </g>
                    <rect id="Mask" stroke="#979797" x="0.5" y="0.5" width="59" height="59" rx="13.915663"></rect>
                </g>
            </g>
        </g>
    </g>
</svg>