<svg xmlns="http://www.w3.org/2000/svg" width="22" height="22" viewBox="0 0 22 22">
    <g fill="none" fill-rule="nonzero" opacity=".6">
        <rect width="22.059" height="22" fill="#000" rx="4"/>
        <path fill="#FFF" d="M17.017 8.356v.408c0 3.875-2.901 8.364-8.204 8.364-1.6 0-3.1-.51-4.401-1.326h.7c1.3 0 2.602-.51 3.602-1.224-1.3 0-2.3-.918-2.7-2.04.199 0 .4.103.5.103.3 0 .5 0 .8-.103-1.3-.306-2.3-1.428-2.3-2.856.4.204.8.306 1.3.409-.8-.714-1.3-1.53-1.3-2.55 0-.51.1-1.02.4-1.428 1.401 1.733 3.502 2.958 5.903 3.059 0-.203-.1-.408-.1-.714 0-1.631 1.3-2.958 2.901-2.958.8 0 1.6.306 2.1.917.701-.102 1.301-.408 1.802-.714-.2.714-.7 1.225-1.3 1.632.6-.103 1.1-.204 1.7-.51a6.836 6.836 0 0 1-1.403 1.53z"/>
    </g>
</svg>
